# xmcd
#
# Track frame offsets:
#	338
#	27708
#	48109
#	63773
#	83770
#	107638
#	124518
#	137246
#	158932
#	174655
#
# Disc length: 2798 seconds
#
# Revision: 1
# Processed by: cddbd v1.5.1PL2 Copyright (c) Steve Scherf et al.
# Submitted via: audiograbber 1.83.01
#
DISCID=810aea0a
DTITLE=The Whipsaws - Ten Day Bender
DYEAR=2006
DGENRE=Alt.Country
TTITLE0=Petersville
TTITLE1=Hillbilly Heroin
TTITLE2=Ass Grass Revival
TTITLE3=Shotgun Wedding
TTITLE4=Hole In My Heart
TTITLE5=Contraband
TTITLE6=Bootlegger's Blues
TTITLE7=Wayward John
TTITLE8=Sweet Marie
TTITLE9=Codeine
EXTD=
EXTT0=
EXTT1=
EXTT2=
EXTT3=
EXTT4=
EXTT5=
EXTT6=
EXTT7=
EXTT8=
EXTT9=
PLAYORDER=
